<?xml version="1.0" encoding="UTF-8"?>
<svg version="1.1" xmlns="http://www.w3.org/2000/svg" width="960" height="491">
<path d="M0 0 C1.81242052 -0.02687279 3.62495233 -0.04633715 5.4375 -0.0625 C6.44683594 -0.07410156 7.45617187 -0.08570312 8.49609375 -0.09765625 C11 0 11 0 12 1 C15.03623255 1.28549649 18.07257785 1.44868814 21.1171875 1.62109375 C24 2 24 2 27 4 C27 4.99 27 5.98 27 7 C29.37438249 7.3383344 31.74934959 7.67079002 34.125 8 C35.12273437 8.14308594 35.12273437 8.14308594 36.140625 8.2890625 C43.13423324 9.29296092 43.13423324 9.29296092 50.078125 8.4609375 C54.81263122 7.32542585 60.21197671 9.08011664 64.4296875 11.25 C66.33578606 12.44385532 68.18536783 13.6719731 70 15 C70 14.34 70 13.68 70 13 C73.63 13 77.26 13 81 13 C80.34 11.68 79.68 10.36 79 9 C78.34 9 77.68 9 77 9 C77 8.34 77 7.68 77 7 C86.11711712 8.69369369 86.11711712 8.69369369 90.0625 10.0625 C93.29682345 11.09473089 96.28315389 11.41182275 99.65625 11.65625 C102 12 102 12 104.78515625 13.00390625 C109.16359727 14.36053135 113.4502071 14.38780147 117.99023438 14.47851562 C122.95920694 14.67384436 126.49008641 16.01940064 131 18 C134.03631278 18.39394806 134.03631278 18.39394806 137 18.25 C137.969375 18.23453125 138.93875 18.2190625 139.9375 18.203125 C143.06152828 18.04577867 143.06152828 18.04577867 146.359375 17.4453125 C150.42985923 16.94742065 154.20158318 17.15376284 158.25 17.625 C159.02504883 17.71273682 159.80009766 17.80047363 160.59863281 17.89086914 C168.08814453 18.8402121 175.23411749 20.72114296 182.484375 22.77734375 C187.69944814 24.2433884 192.96371927 25.17342668 198.3125 26.03125 C201 27 201 27 202.9375 29.46875 C203.288125 30.3040625 203.63875 31.139375 204 32 C203.67 32.66 203.34 33.32 203 34 C197.24237834 32.91103333 191.60752181 31.70663707 186 30 C187.13483924 33.40451771 187.55277937 33.6005564 190.5625 35.1875 C191.696875 35.785625 192.83125 36.38375 194 37 C194 37.66 194 38.32 194 39 C192.39125 39.0928125 192.39125 39.0928125 190.75 39.1875 C186.84833461 39.60061761 186.84833461 39.60061761 185.0625 42.625 C184.381875 43.40875 183.70125 44.1925 183 45 C180.12830189 45.14997263 177.84688471 44.61682502 175 44 C175 44.66 175 45.32 175 46 C174.01 46 173.02 46 172 46 C171.67 47.32 171.34 48.64 171 50 C172.32 50 173.64 50 175 50 C180 55.22727273 180 55.22727273 180 58 C180.185625 58.721875 180.37125 59.44375 180.5625 60.1875 C181.10025094 63.64447034 180.60488399 66.57232408 180 70 C174.47309832 70 172.74910938 67.58395553 168.875 63.9375 C167.92560547 63.09541992 167.92560547 63.09541992 166.95703125 62.23632812 C162.81945508 58.39303816 161.03566354 55.56846494 160 50 C160.66 49.67 161.32 49.34 162 49 C162.68472665 47.11235097 162.68472665 47.11235097 163.125 44.9375 C163.29257812 44.20402344 163.46015625 43.47054687 163.6328125 42.71484375 C163.75398438 42.14894531 163.87515625 41.58304688 164 41 C163.01 41 162.02 41 161 41 C160.67 41.99 160.34 42.98 160 44 C159.278125 43.505 158.55625 43.01 157.8125 42.5 C154.85151341 40.92080715 153.28746971 40.71821688 150 41 C150.34786708 42.97536745 150.34786708 42.97536745 151 45 C151.66 45.33 152.32 45.66 153 46 C153 46.66 153 47.32 153 48 C151.58344207 48.0272415 150.16672955 48.04650467 148.75 48.0625 C147.96109375 48.07410156 147.1721875 48.08570313 146.359375 48.09765625 C144 48 144 48 142.125 47.46875 C139.09129799 46.79955103 136.33440582 47.15990348 133.25 47.4375 C132.07953125 47.53933594 130.9090625 47.64117187 129.703125 47.74609375 C128.81109375 47.82988281 127.9190625 47.91367188 127 48 C125.68 51.3 124.36 54.6 123 58 C124.32 58 125.64 58 127 58 C127.66 58.66 128.32 59.32 129 60 C130.99285937 60.37366113 132.99363529 60.70740515 135 61 C135.66 61.33 136.32 61.66 137 62 C137 61.34 137 60.68 137 60 C140.38810709 60.58133369 142.00137969 61.64073688 144.3828125 64.08984375 C145.29740234 65.01893555 145.29740234 65.01893555 146.23046875 65.96679688 C146.85566406 66.61712891 147.48085938 67.26746094 148.125 67.9375 C149.07439453 68.90719727 149.07439453 68.90719727 150.04296875 69.89648438 C151.21585075 71.09551342 152.38562618 72.29759478 153.55126953 73.50366211 C154.68994759 74.67975881 155.84246141 75.84246141 157 77 C156.34 77.33 155.68 77.66 155 78 C154.34 77.67 153.68 77.34 153 77 C154.98 79.31 156.96 81.62 159 84 C158.34 84.66 157.68 85.32 157 86 C161.22949995 88.41685712 164.12335991 89.34833144 169 89 C169 90.65 169 92.3 169 94 C167.515 94.495 167.515 94.495 166 95 C166 95.66 166 96.32 166 97 C164.35 97.33 162.7 97.66 161 98 C161.99 98.33 162.98 98.66 164 99 C166.58831582 101.81393173 167.5149028 104.20659756 168.1875 107.9375 C168.42533203 109.18853516 168.42533203 109.18853516 168.66796875 110.46484375 C169.00106758 113.00815129 169.05957734 115.43817447 169 118 C167.730447 118.64834654 166.45930294 119.29357815 165.1875 119.9375 C164.47980469 120.29714844 163.77210938 120.65679687 163.04296875 121.02734375 C161 122 161 122 158 123 C157.34 122.67 156.68 122.34 156 122 C155.67 122.66 155.34 123.32 155 124 C152.9375 124.625 152.9375 124.625 151 125 C151 126.65 151 128.3 151 130 C149.68 130 148.36 130 147 130 C144.75 127 144.75 127 143 124 C143.62775567 122.64791086 144.30419733 121.31836295 145 120 C145.37125 119.278125 145.7425 118.55625 146.125 117.8125 C149.06686951 114.96869281 151.98419167 115.26333169 156 115 C156 113.35 156 111.7 156 110 C157.32 109.67 158.64 109.34 160 109 C160.39213671 104.55578397 159.25321274 101.81312925 157 98 C156.34 97.67 155.68 97.34 155 97 C155 95.35 155 93.7 155 92 C155.66 92 156.32 92 157 92 C151.36780736 81.36096618 151.36780736 81.36096618 144 72 C144.66 72.99 145.32 73.98 146 75 C146.86489215 81.95283433 145.92167923 87.68917286 143 94 C142 95 142 95 138.4375 95.0625 C137.303125 95.041875 136.16875 95.02125 135 95 C135.061875 96.36125 135.061875 96.36125 135.125 97.75 C135.00206853 100.94621811 134.49964451 102.28410836 133 105 C133.48210937 105.36351562 133.96421875 105.72703125 134.4609375 106.1015625 C138.53186049 109.34168488 141.02795685 111.65376265 142 117 C141.67 117.66 141.34 118.32 141 119 C138.35139573 119.59355614 135.70802678 119.74209269 133 120 C132.84144531 119.37351562 132.68289063 118.74703125 132.51953125 118.1015625 C131.81426578 115.63118511 131.09276694 113.32695078 130 111 C127.47627099 109.63921965 127.47627099 109.63921965 125 109 C124.1875 106.875 124.1875 106.875 124 105 C120.97580475 105.58803797 117.98241547 106.22678118 115 107 C115 105.35 115 103.7 115 102 C113.35 103.65 111.7 105.3 110 107 C110.99 107.33 111.98 107.66 113 108 C113 108.66 113 109.32 113 110 C113.928125 109.814375 114.85625 109.62875 115.8125 109.4375 C119 109 119 109 122 110 C122 110.99 122 111.98 122 113 C120.68662604 114.0260734 119.35335895 115.02727325 118 116 C117.76764054 118.28401795 117.76764054 118.28401795 120.1875 120.25 C121.115625 121.1575 122.04375 122.065 123 123 C127.19048013 127.72444712 129.22708192 130.39598829 129.16796875 136.8984375 C128.93681421 139.7905571 128.02801774 142.30145342 127 145 C127 145.66 127 146.32 127 147 C124.8125 149.375 124.8125 149.375 122 152 C121.2575 152.70125 120.515 153.4025 119.75 154.125 C115.33703234 157.13384158 110.36784155 159 105 159 C105 160.32 105 161.64 105 163 C104.01 162.67 103.02 162.34 102 162 C101.67 161.34 101.34 160.68 101 160 C99.02 160.33 97.04 160.66 95 161 C94.10595682 163.2459754 94.10595682 163.2459754 94 166 C95.78204045 168.61699814 95.78204045 168.61699814 98.3125 171 C102.62360065 175.3314041 105.27565729 178.86173989 105.3125 185.125 C105 189 105 189 103.6875 191 C102 192 102 192 99 192 C98.7525 192.61875 98.505 193.2375 98.25 193.875 C96.79371361 196.35068687 95.62187494 196.95125002 93 198 C93 196.35 93 194.7 93 193 C92.01 193.33 91.02 193.66 90 194 C90 193.34 90 192.68 90 192 C89.34 192 88.68 192 88 192 C87.54625 191.21625 87.0925 190.4325 86.625 189.625 C84.92348887 186.8764051 83.95480916 186.12078968 81 185 C79.72998461 191.29168939 79.72998461 191.29168939 82 197 C82.2475 197.639375 82.495 198.27875 82.75 198.9375 C83.9875144 201.28116575 83.9875144 201.28116575 86.9375 203.125 C91.17270062 206.44308905 91.75975962 210.98975739 93 216 C93.63763539 217.67798788 94.28627281 219.35293725 95 221 C94.34 221.33 93.68 221.66 93 222 C92.34786708 224.02463255 92.34786708 224.02463255 92 226 C92.66 226 93.32 226 94 226 C94 226.66 94 227.32 94 228 C95.32 227.67 96.64 227.34 98 227 C101 230.75 101 230.75 101 233 C100.01 233 99.02 233 98 233 C98 235.31 98 237.62 98 240 C103.69660413 242.1755436 108.91213419 242.3610508 114.953125 242.55859375 C115.95859375 242.70425781 116.9640625 242.84992188 118 243 C118.66 243.99 119.32 244.98 120 246 C125.4878783 247.54786311 131.34524899 247.0749967 137 247 C148.65979381 246.84536082 148.65979381 246.84536082 154 248 C151.36285735 250.9301585 148.41767633 253.0470421 145 255 C142.625 254.75 142.625 254.75 141 254 C141.66 252.68 142.32 251.36 143 250 C142.4237085 250.05647705 141.84741699 250.1129541 141.25366211 250.17114258 C126.41137443 251.51006531 107.00904912 252.67269942 94 244 C94 243.34 94 242.68 94 242 C92.79260954 240.889318 91.53265169 239.83534451 90.25 238.8125 C86.4979337 235.61336978 84.2039004 232.38135399 82 228 C78.47235749 221.57541471 74.64955038 216.18333756 69.5390625 210.91015625 C68 209 68 209 68 206 C75.25249169 206.36877076 75.25249169 206.36877076 78.8125 209.375 C79.8953125 210.674375 79.8953125 210.674375 81 212 C81.99168195 213.00824943 82.98992158 214.01018103 84 215 C83.0735247 212.70330071 82.13456961 210.41319183 81.1875 208.125 C80.79594727 207.14853516 80.79594727 207.14853516 80.39648438 206.15234375 C78.94194382 202.66862933 78.21850411 201.14566941 75 199 C74.7421875 196.94140625 74.7421875 196.94140625 74.875 194.5625 C75.02436485 191.5403512 74.97828279 189.93484836 74 187 C73.87625 186.0925 73.7525 185.185 73.625 184.25 C72.89798636 180.46952906 71.60570461 177.4906622 70 174 C69.34 174.66 68.68 175.32 68 176 C65.375 176.125 65.375 176.125 63 176 C62.67 173.03 62.34 170.06 62 167 C61.34 167 60.68 167 60 167 C60 166.01 60 165.02 60 164 C59.01 163.67 58.02 163.34 57 163 C55 160 55 160 55 157 C54.13375 157.33 53.2675 157.66 52.375 158 C49.04281725 158.98731341 46.44840462 159.16420974 43 159 C42.938125 159.721875 42.87625 160.44375 42.8125 161.1875 C41.72612084 164.94804324 39.88594474 166.36500698 37 169 C35.76553528 170.22384567 34.53654521 171.45323312 33.3125 172.6875 C31.54166667 174.45833333 29.77083333 176.22916667 28 178 C27.03523881 185.3927631 27.58037655 190.97324075 32 197 C32.33 197.33 32.66 197.66 33 198 C33.04092937 200.33297433 33.04241723 202.66705225 33 205 C31.35 205.33 29.7 205.66 28 206 C26 200.375 26 200.375 26 197 C25.34 197 24.68 197 24 197 C23.67 197.66 23.34 198.32 23 199 C20.75 199.0625 20.75 199.0625 18 198 C17.00146484 196.28125 17.00146484 196.28125 16.0859375 194.0625 C15.74498047 193.2485376 15.40402344 192.4345752 15.05273438 191.59594727 C14.70533203 190.73928467 14.35792969 189.88262207 14 189 C13.65775391 188.18007568 13.31550781 187.36015137 12.96289062 186.51538086 C11.91666548 183.99598566 10.89348565 181.46822384 9.875 178.9375 C9.52824219 178.09123047 9.18148437 177.24496094 8.82421875 176.37304688 C6.78114102 171.29666409 5.19779072 166.34066481 4 161 C3.39671875 161.21140625 2.7934375 161.4228125 2.171875 161.640625 C1.09679687 161.81851563 1.09679687 161.81851563 0 162 C-2.75 159.75 -2.75 159.75 -5 157 C-5 156.01 -5 155.02 -5 154 C-5.639375 153.731875 -6.27875 153.46375 -6.9375 153.1875 C-9 152 -9 152 -10 149 C-10.66 149 -11.32 149 -12 149 C-12 148.34 -12 147.68 -12 147 C-12.66 147.33 -13.32 147.66 -14 148 C-16.3934153 148.12444602 -18.79088078 148.17567069 -21.1875 148.1875 C-23.12689453 148.20876953 -23.12689453 148.20876953 -25.10546875 148.23046875 C-29.1308417 147.99225711 -32.19554003 147.24841553 -36 146 C-35.88693303 147.95894361 -35.88693303 147.95894361 -35 150 C-33.35448038 150.71727778 -31.68577711 151.38325228 -30 152 C-28 155 -28 155 -28.3125 157.5 C-28.82098672 159.34904262 -29.39357462 161.18072387 -30 163 C-30.66 163 -31.32 163 -32 163 C-32 164.32 -32 165.64 -32 167 C-32.99 167 -33.98 167 -35 167 C-35.33 167.99 -35.66 168.98 -36 170 C-36.66 170 -37.32 170 -38 170 C-38.33 170.99 -38.66 171.98 -39 173 C-41.31 173.33 -43.62 173.66 -46 174 C-46 174.99 -46 175.98 -46 177 C-50.32824721 179.01117051 -54.66171819 181.01056622 -59 183 C-59.76441406 183.35191406 -60.52882813 183.70382813 -61.31640625 184.06640625 C-64.08543571 185.30439566 -65.92388736 186 -69 186 C-68.34 187.32 -67.68 188.64 -67 190 C-65.96359375 189.7834375 -64.9271875 189.566875 -63.859375 189.34375 C-62.48962552 189.06229463 -61.11983149 188.781056 -59.75 188.5 C-59.06808594 188.35691406 -58.38617187 188.21382812 -57.68359375 188.06640625 C-54.35366879 187.38748951 -51.41667449 187 -48 187 C-48 197.3961988 -53.39199356 208.842255 -60.6875 216.25 C-62.54124027 217.88754724 -64.47192051 219.35525755 -66.44921875 220.84375 C-72.80447648 226.21603525 -78.07183794 233.87417417 -80 242 C-79.363255 244.00972641 -78.69183687 246.0085668 -78 248 C-77.56887662 250.49093509 -77.19608169 252.99250493 -76.875 255.5 C-76.70742188 256.7684375 -76.53984375 258.036875 -76.3671875 259.34375 C-75.52076474 267.77195964 -75.52076474 267.77195964 -77 271.5625 C-79.34273062 274.41770295 -81.76310794 275.90855143 -84.96484375 277.69140625 C-87.4583368 279.29470792 -89.19261395 280.62527303 -91 283 C-91.2349713 286.66128004 -90.9323276 290.13002456 -90.65234375 293.78515625 C-91 297 -91 297 -93.37890625 298.93359375 C-96 300 -96 300 -98 300 C-98 301.093125 -98 302.18625 -98 303.3125 C-99.00440749 311.39080592 -105.93340272 319.0141254 -112.16796875 323.92578125 C-115.58644372 325.93021753 -119.13131095 326.40716771 -123 327 C-123.95003906 327.21785156 -124.90007812 327.43570312 -125.87890625 327.66015625 C-127.33103516 327.98306641 -127.33103516 327.98306641 -128.8125 328.3125 C-130.15248047 328.61607422 -130.15248047 328.61607422 -131.51953125 328.92578125 C-134 329 -134 329 -136.26171875 327.8359375 C-138.37195855 325.6071449 -138.62107307 324.32970568 -139 321.3125 C-139.70301704 317.00652064 -140.88854947 313.68897928 -143 309.88671875 C-145.2882671 305.5694023 -146.24493377 301.78974347 -146.75 296.9375 C-147.44447413 291.90540876 -148.71098491 288.15286124 -151.125 283.6875 C-154.33020946 277.71593617 -155.13195754 274.23136511 -153.34375 267.546875 C-151.41571101 261.41571101 -151.41571101 261.41571101 -150 260 C-149.73719625 247.89225566 -153.06098499 238.04165599 -161 229 C-161.8125 226.125 -161.8125 226.125 -162 224 C-161.34 224 -160.68 224 -160 224 C-159.97294271 222.22925083 -159.95357805 220.45838289 -159.9375 218.6875 C-159.92589844 217.70136719 -159.91429687 216.71523437 -159.90234375 215.69921875 C-159.87670138 212.90036151 -159.87670138 212.90036151 -161 210 C-163.64 210.33 -166.28 210.66 -169 211 C-172 207.25 -172 207.25 -172 205 C-178.17345669 205.36918662 -178.17345669 205.36918662 -183.875 207.5625 C-187.8971228 209.41267649 -191.14310115 209.18908294 -195.51171875 209.0078125 C-198.13360993 208.86720065 -198.13360993 208.86720065 -201 210 C-205.0943858 210.38399867 -207.34405232 210.37532371 -210.94921875 208.3125 C-216.64882603 203.49913694 -219.9680293 199.76362694 -223 193 C-223.86625 192.525625 -224.7325 192.05125 -225.625 191.5625 C-228.51083997 189.66392107 -228.56273904 188.83805142 -229.3125 185.5625 C-230.0438856 181.59691384 -230.43737343 178.17544108 -229 174.3125 C-227.53135458 169.44761203 -227.31741052 164.48430824 -228.671875 159.5546875 C-229.4786365 153.27347299 -223.44556386 146.44235039 -219.9375 141.5 C-217.62357803 138.52408985 -215.40730744 136.70365372 -212 135 C-209.71034493 133.0558794 -209.71034493 133.0558794 -209.1875 129.6875 C-207.83249592 125.47985576 -206.2370453 123.92875527 -203 121 C-200.63637584 118.50626957 -200.63637584 118.50626957 -199 116 C-199.33 115.01 -199.66 114.02 -200 113 C-201.98 112.67 -203.96 112.34 -206 112 C-206.13947224 105.16586008 -205.85682277 98.63150988 -204 92 C-197.84098757 90.76819751 -192.21324498 91.26969092 -186 92 C-185.88679144 86.91696314 -185.88679144 86.91696314 -187 82 C-187.99 82 -188.98 82 -190 82 C-190 81.34 -190 80.68 -190 80 C-190.99 80 -191.98 80 -193 80 C-192.505 78.02 -192.505 78.02 -192 76 C-190.02 76 -188.04 76 -186 76 C-186 75.01 -186 74.02 -186 73 C-183.69 72.67 -181.38 72.34 -179 72 C-184.28 72.66 -189.56 73.32 -195 74 C-195 73.34 -195 72.68 -195 72 C-194.01 71.34 -193.02 70.68 -192 70 C-192.33 69.01 -192.66 68.02 -193 67 C-192.0625 64.8125 -192.0625 64.8125 -191 63 C-190.01 63 -189.02 63 -188 63 C-188.33 62.34 -188.66 61.68 -189 61 C-189.99 60.67 -190.98 60.34 -192 60 C-192.144375 61.093125 -192.28875 62.18625 -192.4375 63.3125 C-192.96484375 65.23828125 -192.96484375 65.23828125 -194 67 C-196.85898391 68.61594743 -199.75476001 69.51563582 -203 70 C-203.66 69.67 -204.32 69.34 -205 69 C-205.0880829 63.80310881 -205.0880829 63.80310881 -204 61 C-201.22673967 58.79708944 -198.25519595 57.36783991 -195 56 C-195.05414063 54.81857422 -195.05414063 54.81857422 -195.109375 53.61328125 C-195 51 -195 51 -193.25 49.1875 C-191 48 -191 48 -187 48 C-187 47.34 -187 46.68 -187 46 C-186.01 46 -185.02 46 -184 46 C-184.33 47.32 -184.66 48.64 -185 50 C-184.01 50.495 -184.01 50.495 -183 51 C-183.21527344 51.58523437 -183.43054688 52.17046875 -183.65234375 52.7734375 C-184.2320014 55.01545746 -184.2320014 55.01545746 -183.00390625 56.8515625 C-182.52824219 57.43679687 -182.05257812 58.02203125 -181.5625 58.625 C-179 61.82288828 -179 61.82288828 -179 64 C-178.01 64.33 -177.02 64.66 -176 65 C-176 66.32 -176 67.64 -176 69 C-174.04105639 68.88693303 -174.04105639 68.88693303 -172 68 C-171.7525 67.195625 -171.505 66.39125 -171.25 65.5625 C-170 63 -170 63 -168.1015625 62.2265625 C-166.08527147 61.73840783 -164.04264232 61.36240428 -162 61 C-162.2784375 59.329375 -162.2784375 59.329375 -162.5625 57.625 C-163 54 -163 54 -162 52 C-160.02111039 51.27306096 -158.02045442 50.60183749 -156 50 C-156 49.34 -156 48.68 -156 48 C-156.721875 48.495 -157.44375 48.99 -158.1875 49.5 C-161.198557 51.10589707 -162.65585985 51.52802213 -166 51 C-167.63671875 49.80078125 -167.63671875 49.80078125 -169 48 C-169.29296875 45.51953125 -169.29296875 45.51953125 -169.1875 42.8125 C-169.14689453 41.46091797 -169.14689453 41.46091797 -169.10546875 40.08203125 C-169.07066406 39.39496094 -169.03585937 38.70789062 -169 38 C-167.37750059 37.16180842 -165.75191503 36.3295884 -164.125 35.5 C-163.22007812 35.0359375 -162.31515625 34.571875 -161.3828125 34.09375 C-159 33 -159 33 -157 33 C-157 32.34 -157 31.68 -157 31 C-155.37550757 29.29220027 -153.70779973 27.62449243 -152 26 C-151.505 25.505 -151.505 25.505 -151 25 C-151.99 24.01 -151.99 24.01 -153 23 C-145.71182284 16.62284498 -133.88417691 14.44670443 -124.3984375 14.6796875 C-120.48333255 15.20255168 -116.90507414 16.51232566 -113.203125 17.85546875 C-108.79740717 19.42970695 -104.30999159 20.68844603 -99.8125 21.97265625 C-97.06398678 22.97662705 -95.21788171 24.11799941 -93 26 C-92.67 25.01 -92.34 24.02 -92 23 C-92.66 23 -93.32 23 -94 23 C-94 22.34 -94 21.68 -94 21 C-91.36 21.33 -88.72 21.66 -86 22 C-86 22.99 -86 23.98 -86 25 C-85.34 25.33 -84.68 25.66 -84 26 C-83.67 25.01 -83.34 24.02 -83 23 C-81.07421875 22.015625 -81.07421875 22.015625 -78.6875 21.25 C-77.90761719 20.98703125 -77.12773438 20.7240625 -76.32421875 20.453125 C-73.79594478 19.96021781 -72.4351568 20.28615986 -70 21 C-67.31850007 20.61432869 -67.31850007 20.61432869 -65 20 C-65.33 19.01 -65.66 18.02 -66 17 C-60.63108121 17.49869404 -55.30764827 18.02227532 -50 19 C-50.20625 18.278125 -50.4125 17.55625 -50.625 16.8125 C-51.05952211 13.55358415 -50.41680669 11.91695496 -49 9 C-46.23723823 9.52268466 -43.6739124 10.10869587 -41 11 C-40.67 10.67 -40.34 10.34 -40 10 C-39.278125 10.350625 -38.55625 10.70125 -37.8125 11.0625 C-34.6877295 12.10409017 -33.11838004 11.89096572 -30 11 C-30.33 10.34 -30.66 9.68 -31 9 C-28.69 9 -26.38 9 -24 9 C-24 8.01 -24 7.02 -24 6 C-15.9901375 3.74190046 -8.3124321 2.42741229 0 2 C0 1.34 0 0.68 0 0 Z M-34 21 C-34 22.65 -34 24.3 -34 26 C-33.34 26 -32.68 26 -32 26 C-32.33 24.35 -32.66 22.7 -33 21 C-33.33 21 -33.66 21 -34 21 Z M-108 28 C-107.67 29.32 -107.34 30.64 -107 32 C-104.36 31.67 -101.72 31.34 -99 31 C-99 30.34 -99 29.68 -99 29 C-101.97 28.67 -104.94 28.34 -108 28 Z M-134 31 C-134.65213292 33.02463255 -134.65213292 33.02463255 -135 35 C-131.34683329 33.75023244 -130.21934164 33.32901247 -128 30 C-131.7763932 29.7018576 -131.7763932 29.7018576 -134 31 Z M-140.8125 37.25 C-142.23061831 38.9430895 -142.23061831 38.9430895 -141.8125 41.125 C-141.1564434 43.18964132 -141.1564434 43.18964132 -139 44 C-139.3125 45.875 -139.3125 45.875 -140 48 C-140.99 48.66 -141.98 49.32 -143 50 C-143.25030977 52.58380177 -143.25030977 52.58380177 -143 55 C-147.455 56.485 -147.455 56.485 -152 58 C-151.01 58.33 -150.02 58.66 -149 59 C-149 59.66 -149 60.32 -149 61 C-147.24929483 60.88529863 -145.49942464 60.75780972 -143.75 60.625 C-142.77546875 60.55539063 -141.8009375 60.48578125 -140.796875 60.4140625 C-138.00546234 60.00080867 -136.26096185 59.68666719 -134 58 C-133.19333565 55.65717517 -133.19333565 55.65717517 -132.9375 53 C-132.58984375 50.3125 -132.58984375 50.3125 -132 48 C-131.01 47.34 -130.02 46.68 -129 46 C-129.804375 45.649375 -130.60875 45.29875 -131.4375 44.9375 C-134 43 -134 43 -134.8125 39.3125 C-134.874375 38.219375 -134.93625 37.12625 -135 36 C-138.81814804 35.62151136 -138.81814804 35.62151136 -140.8125 37.25 Z M-123 44 C-122.67 44.66 -122.34 45.32 -122 46 C-121.01 45.67 -120.02 45.34 -119 45 C-120.32 44.67 -121.64 44.34 -123 44 Z M-156 50 C-155.67 51.65 -155.34 53.3 -155 55 C-154.34 55 -153.68 55 -153 55 C-153.66 53.35 -154.32 51.7 -155 50 C-155.33 50 -155.66 50 -156 50 Z M-130 50 C-129.34 50.66 -128.68 51.32 -128 52 C-128 51.34 -128 50.68 -128 50 C-128.66 50 -129.32 50 -130 50 Z M62 63 C61.67 63.66 61.34 64.32 61 65 C61.66 65 62.32 65 63 65 C62.67 64.34 62.34 63.68 62 63 Z M-96.625 84.5 C-97.07875 84.995 -97.5325 85.49 -98 86 C-96.35 86 -94.7 86 -93 86 C-93 85.01 -93 84.02 -93 83 C-95.12364481 82.77390663 -95.12364481 82.77390663 -96.625 84.5 Z M-69 88 C-67.14225905 92.18251174 -65.65713751 95.41587777 -62.1875 98.5 C-60 101 -60 101 -59.90625 103.08203125 C-60.1875 105.3125 -60.1875 105.3125 -61 109 C-57.16674383 111.70582788 -54.67461851 112.32613618 -50 112 C-49.48248105 107.73046869 -50.75677164 105.29617866 -52.99609375 101.69921875 C-54 100 -54 100 -54.9375 97.3125 C-56.33116212 94.27923538 -58.31387629 92.90856158 -61 91 C-60.75 89.125 -60.75 89.125 -60 87 C-57.9375 85.75 -57.9375 85.75 -56 85 C-56.33 84.34 -56.66 83.68 -57 83 C-62.26756135 82.20188464 -65.11217919 84.86285353 -69 88 Z M-108 84 C-111.57692381 88.15697707 -111.57692381 88.15697707 -114 93 C-113.69621948 95.68993053 -113.69621948 95.68993053 -113 98 C-108.4340615 98.8780651 -106.04994467 99.2209374 -102 97 C-98.79316197 96.72707761 -96.6042758 96.74556808 -93.625 98 C-89.96580365 99.39397956 -86.90290019 99.1323017 -83 99 C-83 97.68 -83 96.36 -83 95 C-84.83076256 93.23006144 -84.83076256 93.23006144 -87.25 91.8125 C-88.03890625 91.30332031 -88.8278125 90.79414062 -89.640625 90.26953125 C-93.39182314 88.25108854 -95.0970674 87.73953867 -99.25 88.9375 C-100.1575 89.288125 -101.065 89.63875 -102 90 C-102 89.34 -102 88.68 -102 88 C-102.99 88 -103.98 88 -105 88 C-104.67 87.01 -104.34 86.02 -104 85 C-105.32 84.67 -106.64 84.34 -108 84 Z M-40 87 C-40 87.99 -40 88.98 -40 90 C-39.34 90 -38.68 90 -38 90 C-38.33 89.01 -38.66 88.02 -39 87 C-39.33 87 -39.66 87 -40 87 Z M-151 87 C-150.41850235 90.92510917 -148.70742568 93.15007824 -146 96 C-144.81283011 96.72343165 -143.6027296 97.41026865 -142.375 98.0625 C-139.15686475 99.90994802 -138.10259794 100.56969531 -137 104 C-138.32 103.67 -139.64 103.34 -141 103 C-141 104.98 -141 106.96 -141 109 C-141.99 109 -142.98 109 -144 109 C-144 110.32 -144 111.64 -144 113 C-146.64 112.34 -149.28 111.68 -152 111 C-152 110.01 -152 109.02 -152 108 C-149.69 108 -147.38 108 -145 108 C-144.67 106.68 -144.34 105.36 -144 104 C-150.47898964 98.60902869 -150.47898964 98.60902869 -158 95 C-159.37432457 98.81756824 -158.67975039 102.07255329 -158 106 C-159.32 106 -160.64 106 -162 106 C-162.495 102.535 -162.495 102.535 -163 99 C-162.34 98.67 -161.68 98.34 -161 98 C-160.34786708 95.97536745 -160.34786708 95.97536745 -160 94 C-159.34 94 -158.68 94 -158 94 C-158.495 92.515 -158.495 92.515 -159 91 C-162.29075996 91.37904208 -162.29075996 91.37904208 -165 93 C-167.67058851 93.14115161 -170.32432238 93.04247107 -173 93 C-173.20625 93.7425 -173.4125 94.485 -173.625 95.25 C-175 98 -175 98 -178 99.9375 C-181.56350095 102.38740691 -182.03495609 103.87663055 -183 108 C-183.33 108.99 -183.66 109.98 -184 111 C-186.50390625 111.94921875 -186.50390625 111.94921875 -189.5625 112.6875 C-190.57441406 112.93886719 -191.58632813 113.19023437 -192.62890625 113.44921875 C-193.41136719 113.63097656 -194.19382812 113.81273437 -195 114 C-195 114.66 -195 115.32 -195 116 C-193.845 116.2475 -192.69 116.495 -191.5 116.75 C-190.8503125 116.88921875 -190.200625 117.0284375 -189.53125 117.171875 C-186.8179993 116.98764193 -185.75785056 116.40621535 -183.4296875 115.09375 C-178.33115825 112.3791341 -173.31292278 112.11161628 -167.625 111.75 C-166.62855469 111.67265625 -165.63210938 111.5953125 -164.60546875 111.515625 C-157.81947545 111 -157.81947545 111 -155 111 C-155.165 111.5775 -155.33 112.155 -155.5 112.75 C-156.14462031 115.26664369 -156.14462031 115.26664369 -156 119 C-156.495 119.99 -156.495 119.99 -157 121 C-152.63799813 123.44697666 -148.97306516 124.50269348 -144 125 C-143.67 125.99 -143.34 126.98 -143 128 C-140.90280128 129.02281518 -140.90280128 129.02281518 -138.4375 129.6875 C-137.19806641 130.06455078 -137.19806641 130.06455078 -135.93359375 130.44921875 C-135.29550781 130.63097656 -134.65742188 130.81273437 -134 131 C-132.70366379 129.93354885 -132.70366379 129.93354885 -132.9375 127.4375 C-132.958125 126.633125 -132.97875 125.82875 -133 125 C-127.22706929 123.70403596 -124.26204939 124.41681212 -119 127 C-114.28155943 128.89007634 -110.3206629 129.2426159 -105.25 129.1875 C-103.93515625 129.18105469 -102.6203125 129.17460937 -101.265625 129.16796875 C-98.11526817 129.22458354 -98.11526817 129.22458354 -96 128 C-95.04707345 125.79688191 -95.04707345 125.79688191 -94.3125 123.1875 C-94.04050781 122.31480469 -93.76851562 121.44210938 -93.48828125 120.54296875 C-92.97988478 117.89523991 -92.91087296 116.46021083 -94 114 C-95.485 113.505 -95.485 113.505 -97 113 C-97.495 113.495 -97.495 113.495 -98 114 C-101.06481021 114.1613058 -103.05549278 113.98150241 -106 113 C-106 113.66 -106 114.32 -106 115 C-107.4835001 114.57742724 -108.96176424 114.13643678 -110.4375 113.6875 C-111.26121094 113.44386719 -112.08492187 113.20023438 -112.93359375 112.94921875 C-113.61550781 112.63597656 -114.29742188 112.32273437 -115 112 C-115.495 110.515 -115.495 110.515 -116 109 C-116.66 109 -117.32 109 -118 109 C-117.67 107.68 -117.34 106.36 -117 105 C-117.66 105 -118.32 105 -119 105 C-119 103.68 -119 102.36 -119 101 C-120.65 101.66 -122.3 102.32 -124 103 C-124 103.99 -124 104.98 -124 106 C-123.34 106 -122.68 106 -122 106 C-122 106.66 -122 107.32 -122 108 C-121.34 108 -120.68 108 -120 108 C-120.33 108.66 -120.66 109.32 -121 110 C-121.66 110.144375 -122.32 110.28875 -123 110.4375 C-123.66 110.623125 -124.32 110.80875 -125 111 C-125.495 112.485 -125.495 112.485 -126 114 C-132.45971564 109.0521327 -132.45971564 109.0521327 -133 105 C-133.66 104.01 -134.32 103.02 -135 102 C-135.20625 101.030625 -135.4125 100.06125 -135.625 99.0625 C-137.38095018 95.15152005 -139.18519949 94.52979685 -143.02734375 92.95703125 C-145.15470824 91.92494353 -146.35296205 90.66580761 -148 89 C-148.66 89 -149.32 89 -150 89 C-150.495 88.01 -150.495 88.01 -151 87 Z M-58 133 C-58.69159401 134.84725052 -58.69159401 134.84725052 -59 137 C-58.01 138.485 -58.01 138.485 -57 140 C-56.34 140 -55.68 140 -55 140 C-54.34 141.32 -53.68 142.64 -53 144 C-52.01 144 -51.02 144 -50 144 C-50 145.98 -50 147.96 -50 150 C-45.22564536 149.65933687 -45.22564536 149.65933687 -41.0625 147.5625 C-39.81256333 146.03927901 -39.81256333 146.03927901 -40 144 C-41.051875 143.731875 -42.10375 143.46375 -43.1875 143.1875 C-49.82647685 141.11962197 -52.2535958 138.81338583 -56 133 C-56.66 133 -57.32 133 -58 133 Z M-96 140 C-94.27986587 145.55735643 -91.92377516 150.46407519 -88.9375 155.4375 C-86.96614556 158.81269775 -86.06376712 162.24135616 -85 166 C-84.03886134 167.36161311 -83.04115841 168.69855198 -82 170 C-81.71125 170.825 -81.4225 171.65 -81.125 172.5 C-79.70226356 175.66163653 -77.74918849 176.95573164 -75 179 C-74.67 179.66 -74.34 180.32 -74 181 C-73.34 181 -72.68 181 -72 181 C-71.67 181.66 -71.34 182.32 -71 183 C-71.32637752 178.80286546 -71.32637752 178.80286546 -73.5625 175.4375 C-74.036875 174.963125 -74.51125 174.48875 -75 174 C-74.979375 173.236875 -74.95875 172.47375 -74.9375 171.6875 C-75.02600983 167.88157731 -76.68345846 165.92974372 -79 163 C-79.66 163 -80.32 163 -81 163 C-81.4640625 161.205625 -81.4640625 161.205625 -81.9375 159.375 C-83.5042097 154.64459632 -85.85070778 150.62383894 -88.5 146.4375 C-88.89179443 145.80569824 -89.28358887 145.17389648 -89.68725586 144.52294922 C-90.94296609 142.53629512 -90.94296609 142.53629512 -93 140 C-93.99 140 -94.98 140 -96 140 Z M26 193 C27 195 27 195 27 195 Z M-97 223 C-97.99 223.495 -97.99 223.495 -99 224 C-99 225.98 -99 227.96 -99 230 C-98.01 229.67 -97.02 229.34 -96 229 C-94.78130071 226.49552484 -94.78130071 226.49552484 -94 224 C-94.99 223.67 -95.98 223.34 -97 223 Z " fill="#000000" transform="translate(638,23)"/>
<path d="M0 0 C1.20527344 -0.00894287 2.41054688 -0.01788574 3.65234375 -0.02709961 C9.50113543 -0.00779531 14.85304282 0.31383016 20.52270508 1.7734375 C23.16440194 2.43091452 25.78981557 2.66916321 28.5 2.875 C29.43972656 2.94976562 30.37945312 3.02453125 31.34765625 3.1015625 C32.03730469 3.15054687 32.72695313 3.19953125 33.4375 3.25 C33.4375 3.91 33.4375 4.57 33.4375 5.25 C32.02353098 5.75757862 30.60618271 6.25574925 29.1875 6.75 C28.39859375 7.0284375 27.6096875 7.306875 26.796875 7.59375 C24.4375 8.25 24.4375 8.25 20.4375 8.25 C20.4375 9.57 20.4375 10.89 20.4375 12.25 C20.251875 12.930625 20.06625 13.61125 19.875 14.3125 C19.21672612 16.45004394 19.21672612 16.45004394 20.4375 19.25 C19.37208984 19.68699219 19.37208984 19.68699219 18.28515625 20.1328125 C17.36605469 20.54273437 16.44695312 20.95265625 15.5 21.375 C14.58347656 21.76945312 13.66695313 22.16390625 12.72265625 22.5703125 C10.10352434 24.08406006 10.10352434 24.08406006 9.953125 27.2578125 C9.69789063 28.73894531 9.69789063 28.73894531 9.4375 30.25 C3.20569395 34.60909014 -4.55949487 35.71394461 -11.9375 36.72265625 C-15.4511016 37.42851372 -17.73860597 39.09846169 -20.5625 41.25 C-23.46468664 42.37533768 -26.03693348 43.18590652 -29.125 43.5625 C-33.41645644 44.77291079 -35.76375307 48.26417385 -38.48046875 51.6171875 C-39.16753906 52.44476563 -39.85460937 53.27234375 -40.5625 54.125 C-41.201875 54.92679688 -41.84125 55.72859375 -42.5 56.5546875 C-44.5625 58.25 -44.5625 58.25 -47.1484375 58.015625 C-47.94507813 57.76296875 -48.74171875 57.5103125 -49.5625 57.25 C-50.42875 57.20875 -51.295 57.1675 -52.1875 57.125 C-54.5625 56.25 -54.5625 56.25 -56.3125 53.0625 C-58.16950024 47.92165189 -59.03747998 42.71226973 -58.5625 37.25 C-57.60136134 35.88838689 -56.60365841 34.55144802 -55.5625 33.25 C-55.5625 31.93 -55.5625 30.61 -55.5625 29.25 C-55.41248555 27.33195815 -55.24490316 25.41523314 -55.0625 23.5 C-54.9696875 22.51515625 -54.876875 21.5303125 -54.78125 20.515625 C-54.7090625 19.76796875 -54.636875 19.0203125 -54.5625 18.25 C-57.95919862 16.55165069 -61.78626545 17.35013419 -65.51953125 17.5078125 C-68.99937481 17.21298622 -70.78022 16.31797831 -73.5625 14.25 C-73.8925 13.59 -74.2225 12.93 -74.5625 12.25 C-79.0175 12.745 -79.0175 12.745 -83.5625 13.25 C-83.5625 13.91 -83.5625 14.57 -83.5625 15.25 C-86.20988916 16.7106285 -87.45698334 17.25 -90.5625 17.25 C-90.5625 17.91 -90.5625 18.57 -90.5625 19.25 C-91.2225 19.58 -91.8825 19.91 -92.5625 20.25 C-89.6401718 23.62894198 -87.6082264 25.41338009 -83.3125 26.75 C-81.23828125 27.4296875 -81.23828125 27.4296875 -79.5625 28.25 C-78.5 30.875 -78.5 30.875 -78.5625 33.25 C-78.8925 33.58 -79.2225 33.91 -79.5625 34.25 C-77.2525 35.57 -74.9425 36.89 -72.5625 38.25 C-72.8925 39.24 -73.2225 40.23 -73.5625 41.25 C-76.0375 41.745 -76.0375 41.745 -78.5625 42.25 C-78.5625 42.91 -78.5625 43.57 -78.5625 44.25 C-79.8825 44.25 -81.2025 44.25 -82.5625 44.25 C-83.01625 45.343125 -83.47 46.43625 -83.9375 47.5625 C-84.97892091 50.07137765 -86.02728044 51.94717067 -87.5625 54.25 C-87.39907274 56.21112714 -87.22163553 58.17469938 -86.90625 60.1171875 C-86.58570274 62.10603754 -86.41193524 64.11700299 -86.25 66.125 C-85.90998105 69.35428731 -85.90998105 69.35428731 -83.5 70.6875 C-82.5409375 70.9659375 -82.5409375 70.9659375 -81.5625 71.25 C-81.5625 72.24 -81.5625 73.23 -81.5625 74.25 C-80.9025 74.25 -80.2425 74.25 -79.5625 74.25 C-79.6346875 74.87648438 -79.706875 75.50296875 -79.78125 76.1484375 C-79.8740625 76.96570313 -79.966875 77.78296875 -80.0625 78.625 C-80.1553125 79.43710938 -80.248125 80.24921875 -80.34375 81.0859375 C-80.59602351 83.21912825 -80.59602351 83.21912825 -80.5625 85.25 C-79.9025 85.25 -79.2425 85.25 -78.5625 85.25 C-77.3125 92.875 -77.3125 92.875 -79.5625 96.25 C-80.8825 95.92 -82.2025 95.59 -83.5625 95.25 C-83.5625 94.59 -83.5625 93.93 -83.5625 93.25 C-87.1925 93.25 -90.8225 93.25 -94.5625 93.25 C-93.9025 91.6 -93.2425 89.95 -92.5625 88.25 C-91.5725 87.92 -90.5825 87.59 -89.5625 87.25 C-89.5625 86.26 -89.5625 85.27 -89.5625 84.25 C-90.5525 84.745 -90.5525 84.745 -91.5625 85.25 C-94.27512116 85.4822646 -96.97023126 85.66936235 -99.6875 85.8125 C-100.44160156 85.85568359 -101.19570313 85.89886719 -101.97265625 85.94335938 C-103.83571888 86.0494832 -105.69908524 86.15025001 -107.5625 86.25 C-106.2425 86.58 -104.9225 86.91 -103.5625 87.25 C-103.8925 89.89 -104.2225 92.53 -104.5625 95.25 C-101.9225 94.59 -99.2825 93.93 -96.5625 93.25 C-96.5625 94.9 -96.5625 96.55 -96.5625 98.25 C-97.14257812 98.50394531 -97.72265625 98.75789063 -98.3203125 99.01953125 C-101.91161292 100.60183688 -105.45186662 102.19263454 -108.9375 104 C-111.5625 105.25 -111.5625 105.25 -114.5625 105.25 C-114.8925 104.26 -115.2225 103.27 -115.5625 102.25 C-117.0506964 102.78815587 -118.52799872 103.3565073 -120 103.9375 C-120.82371094 104.25074219 -121.64742187 104.56398438 -122.49609375 104.88671875 C-124.82884244 106.10765609 -124.82884244 106.10765609 -125.34765625 108.89453125 C-125.45400391 110.06048828 -125.45400391 110.06048828 -125.5625 111.25 C-126.33335937 111.42015625 -127.10421875 111.5903125 -127.8984375 111.765625 C-128.90132812 112.00796875 -129.90421875 112.2503125 -130.9375 112.5 C-131.93523437 112.73203125 -132.93296875 112.9640625 -133.9609375 113.203125 C-136.697702 114.0123412 -136.697702 114.0123412 -137.9140625 116.359375 C-138.12804687 116.98328125 -138.34203125 117.6071875 -138.5625 118.25 C-139.2225 118.25 -139.8825 118.25 -140.5625 118.25 C-142.20070273 121.05834754 -142.64064969 122.86542881 -143.0625 126.1875 C-143.72961776 129.06944874 -144.19874226 129.99894642 -146.66796875 131.703125 C-148.41029492 132.53606762 -150.17053522 133.33239627 -151.9453125 134.09375 C-155.94688293 135.86160798 -160.555111 138.23522201 -162.5625 142.25 C-162.5936458 145.76057625 -162.49479246 149.2601784 -162.40234375 152.76953125 C-162.55627399 156.11469822 -163.11286279 158.26545279 -164.5625 161.25 C-167.5625 160.25 -167.5625 160.25 -169.25 157.6875 C-170.84307068 153.51517203 -170.79163445 150.67993262 -170.5625 146.25 C-172.2125 146.58 -173.8625 146.91 -175.5625 147.25 C-175.5625 146.59 -175.5625 145.93 -175.5625 145.25 C-178.5325 145.25 -181.5025 145.25 -184.5625 145.25 C-184.8925 146.57 -185.2225 147.89 -185.5625 149.25 C-186.25214844 149.04761719 -186.94179687 148.84523437 -187.65234375 148.63671875 C-192.69479291 147.39858651 -196.66105903 146.67328186 -201.5 148.875 C-206.19724908 151.95599133 -207.55927568 155.89021158 -208.9765625 161.17578125 C-210.03883108 166.74915042 -210.60082069 171.13009526 -208.0625 176.3125 C-207.5675 176.951875 -207.0725 177.59125 -206.5625 178.25 C-202.9325 177.92 -199.3025 177.59 -195.5625 177.25 C-195.27375 176.280625 -194.985 175.31125 -194.6875 174.3125 C-193.5625 171.25 -193.5625 171.25 -191.5625 170.25 C-188.8901379 170.11584528 -186.23999512 170.20681459 -183.5625 170.25 C-183.5625 171.9 -183.5625 173.55 -183.5625 175.25 C-184.2225 175.25 -184.8825 175.25 -185.5625 175.25 C-185.7171875 176.549375 -185.7171875 176.549375 -185.875 177.875 C-186.59648414 181.41683123 -187.83373261 184.09312042 -189.5625 187.25 C-188.345625 187.023125 -187.12875 186.79625 -185.875 186.5625 C-181.84119386 185.81043445 -179.90495523 186.97291579 -176.5625 189.25 C-176.68109375 190.21421875 -176.7996875 191.1784375 -176.921875 192.171875 C-177.05078125 193.43515625 -177.1796875 194.6984375 -177.3125 196 C-177.45171875 197.25296875 -177.5909375 198.5059375 -177.734375 199.796875 C-177.86362265 203.2748096 -177.86362265 203.2748096 -175.86328125 205.7265625 C-173.70840754 207.43689877 -173.70840754 207.43689877 -171.30859375 207.3515625 C-170.54675781 207.19429687 -169.78492188 207.03703125 -169 206.875 C-164.86055195 206.0512987 -164.86055195 206.0512987 -161.5625 208.25 C-160.5415625 206.6103125 -160.5415625 206.6103125 -159.5 204.9375 C-155.96364119 199.96449543 -151.48365769 198.43423154 -145.5625 197.25 C-145.2325 198.57 -144.9025 199.89 -144.5625 201.25 C-144.2325 200.26 -143.9025 199.27 -143.5625 198.25 C-142.9025 198.25 -142.2425 198.25 -141.5625 198.25 C-141.5625 198.91 -141.5625 199.57 -141.5625 200.25 C-140.5725 200.25 -139.5825 200.25 -138.5625 200.25 C-138.2325 200.91 -137.9025 201.57 -137.5625 202.25 C-135.70342322 202.75374228 -135.70342322 202.75374228 -133.5625 202.9375 C-132.4796875 203.06705078 -132.4796875 203.06705078 -131.375 203.19921875 C-130.4778125 203.22435547 -130.4778125 203.22435547 -129.5625 203.25 C-129.2325 202.92 -128.9025 202.59 -128.5625 202.25 C-126.22952567 202.20907063 -123.89544775 202.20758277 -121.5625 202.25 C-121.5625 203.24 -121.5625 204.23 -121.5625 205.25 C-120.5725 205.58 -119.5825 205.91 -118.5625 206.25 C-118.5625 207.24 -118.5625 208.23 -118.5625 209.25 C-117.94375 209.3325 -117.325 209.415 -116.6875 209.5 C-114.5625 210.25 -114.5625 210.25 -113.625 212.1875 C-112.72437701 214.40041263 -112.72437701 214.40041263 -110.5625 215.375 C-107.69357855 216.28577503 -107.69357855 216.28577503 -105.1875 216.6015625 C-97.37720588 217.78705357 -97.37720588 217.78705357 -94.5625 221.0625 C-92.31491773 224.64458424 -90.96660115 227.91335774 -89.75 231.9375 C-88.75377412 234.4123214 -88.75377412 234.4123214 -86.375 235.4375 C-85.446875 235.705625 -84.51875 235.97375 -83.5625 236.25 C-81.6753125 236.806875 -81.6753125 236.806875 -79.75 237.375 C-78.698125 237.66375 -77.64625 237.9525 -76.5625 238.25 C-76.2325 239.57 -75.9025 240.89 -75.5625 242.25 C-74.7890625 242.25257813 -74.015625 242.25515625 -73.21875 242.2578125 C-66.42040346 242.51022636 -62.41161739 243.32629029 -57.25390625 247.81640625 C-55.19962478 249.55756399 -53.12177455 250.4502267 -50.5625 251.25 C-49.46232545 257.19333425 -48.8957487 261.47192487 -52.30859375 266.6328125 C-53.5625 268.25 -53.5625 268.25 -54.91015625 269.7421875 C-59.13187105 274.69008647 -59.02665467 279.17050356 -59.2578125 285.52734375 C-59.82262912 292.4282442 -61.70356238 299.46159357 -65.5625 305.25 C-67.5078125 305.76171875 -67.5078125 305.76171875 -69.6875 305.9375 C-70.96625 306.040625 -72.245 306.14375 -73.5625 306.25 C-73.5625 306.91 -73.5625 307.57 -73.5625 308.25 C-74.738125 308.683125 -74.738125 308.683125 -75.9375 309.125 C-78.65921632 310.09912254 -78.65921632 310.09912254 -80.5625 312.25 C-80.91377945 314.44866426 -80.91377945 314.44866426 -81 316.9375 C-81.36980763 321.65597137 -82.45447701 325.03395403 -84.5625 329.25 C-85.2225 329.25 -85.8825 329.25 -86.5625 329.25 C-86.81 330.11625 -87.0575 330.9825 -87.3125 331.875 C-88.67551136 335.55513068 -90.0029575 338.26386708 -92.5625 341.25 C-95.8125 341.625 -95.8125 341.625 -98.5625 341.25 C-98.5625 342.24 -98.5625 343.23 -98.5625 344.25 C-97.9025 344.25 -97.2425 344.25 -96.5625 344.25 C-96.75 347.0625 -96.75 347.0625 -97.5625 350.25 C-100.85613353 352.99469461 -103.32714012 353.61303085 -107.5625 353.25 C-107.5625 355.23 -107.5625 357.21 -107.5625 359.25 C-109.2125 359.58 -110.8625 359.91 -112.5625 360.25 C-111.2425 360.91 -109.9225 361.57 -108.5625 362.25 C-108.8925 363.178125 -109.2225 364.10625 -109.5625 365.0625 C-110.71217004 368.17029291 -110.71217004 368.17029291 -110.5625 371.25 C-111.5525 371.58 -112.5425 371.91 -113.5625 372.25 C-113.5625 372.91 -113.5625 373.57 -113.5625 374.25 C-111.9125 374.91 -110.2625 375.57 -108.5625 376.25 C-108.34213136 380.10645121 -108.95894899 382.74223216 -110.5625 386.25 C-111.2225 386.25 -111.8825 386.25 -112.5625 386.25 C-108.64285886 392.36701572 -105.2978868 395.46294339 -98.5625 398.25 C-98.5625 398.91 -98.5625 399.57 -98.5625 400.25 C-104.41972665 402.49319318 -108.6721824 402.51777228 -114.5625 400.25 C-118.90505035 397.83823549 -123.35957754 395.10760786 -126.5625 391.25 C-126.5625 390.26 -126.5625 389.27 -126.5625 388.25 C-127.2225 388.25 -127.8825 388.25 -128.5625 388.25 C-130.71555957 384.39243493 -131.95503254 381.69870215 -131.5625 377.25 C-132.5525 376.92 -133.5425 376.59 -134.5625 376.25 C-134.6875 368.5 -134.6875 368.5 -133.5625 366.25 C-134.2225 366.25 -134.8825 366.25 -135.5625 366.25 C-135.68367187 365.43015625 -135.80484375 364.6103125 -135.9296875 363.765625 C-136.18105469 362.14914062 -136.18105469 362.14914062 -136.4375 360.5 C-136.68113281 358.89898437 -136.68113281 358.89898437 -136.9296875 357.265625 C-137.3932115 354.34805418 -137.3932115 354.34805418 -138.59204102 352.33911133 C-139.69800773 349.95829192 -139.78079081 348.41852962 -139.72265625 345.80859375 C-139.7062207 344.56239258 -139.7062207 344.56239258 -139.68945312 343.29101562 C-139.66818359 342.43185547 -139.64691406 341.57269531 -139.625 340.6875 C-139.59052811 338.97794982 -139.56039674 337.26830514 -139.53515625 335.55859375 C-139.51718994 334.80376709 -139.49922363 334.04894043 -139.48071289 333.27124023 C-139.47719298 331.04323233 -139.47719298 331.04323233 -140.5625 328.25 C-140.69023888 326.13377458 -140.76442577 324.0141483 -140.80859375 321.89453125 C-140.84146484 320.63189453 -140.87433594 319.36925781 -140.90820312 318.06835938 C-140.97080419 315.41738253 -141.02629349 312.76642343 -141.08007812 310.11523438 C-140.92918571 298.41063174 -140.92918571 298.41063174 -146.1875 288.5625 C-149.27474624 286.31169978 -152.54592802 284.31606124 -155.828125 282.36328125 C-159.18592179 280.20793872 -160.1965884 277.86128693 -161.68359375 274.25585938 C-163.23788849 270.70861337 -165.15826686 267.36854443 -167.0625 264 C-167.45308594 263.29359375 -167.84367188 262.5871875 -168.24609375 261.859375 C-168.62894531 261.17875 -169.01179687 260.498125 -169.40625 259.796875 C-169.74849609 259.18682617 -170.09074219 258.57677734 -170.44335938 257.94824219 C-171.52102563 256.17342377 -171.52102563 256.17342377 -173.17773438 254.71582031 C-174.5625 253.25 -174.5625 253.25 -174.875 250.25 C-174.5625 247.25 -174.5625 247.25 -172.5625 244.25 C-172.8925 243.92 -173.2225 243.59 -173.5625 243.25 C-173.84888525 239.04968304 -173.49117445 236.00583972 -171.5625 232.25 C-170.13432876 230.63554556 -168.6859279 229.34508519 -166.98046875 228.03125 C-164.94679271 225.47654952 -165.23215711 223.59675006 -165.3125 220.375 C-165.33570313 218.83199219 -165.33570313 218.83199219 -165.359375 217.2578125 C-165.54566065 214.49935192 -165.94675589 211.94139764 -166.5625 209.25 C-167.2225 209.58 -167.8825 209.91 -168.5625 210.25 C-169.21463292 212.27463255 -169.21463292 212.27463255 -169.5625 214.25 C-171.5425 214.25 -173.5225 214.25 -175.5625 214.25 C-175.8925 213.59 -176.2225 212.93 -176.5625 212.25 C-177.2225 211.92 -177.8825 211.59 -178.5625 211.25 C-180.5625 210.25 -180.5625 210.25 -181.5625 208.25 C-182.490625 207.9096875 -182.490625 207.9096875 -183.4375 207.5625 C-187.35031815 205.14575938 -188.16593943 200.43968172 -189.5625 196.25 C-190.8928125 196.064375 -190.8928125 196.064375 -192.25 195.875 C-197.01182508 194.97654244 -199.66998076 194.25995598 -202.9375 190.5625 C-203.80375 189.799375 -204.67 189.03625 -205.5625 188.25 C-206.58730469 188.44851562 -207.61210937 188.64703125 -208.66796875 188.8515625 C-213.90401923 189.3872467 -216.93030222 187.68153784 -221.5 185.3125 C-222.27923828 184.92642578 -223.05847656 184.54035156 -223.86132812 184.14257812 C-225.76968639 183.19425285 -227.66725617 182.22427045 -229.5625 181.25 C-229.5625 180.59 -229.5625 179.93 -229.5625 179.25 C-231.5425 178.26 -231.5425 178.26 -233.5625 177.25 C-233.50449219 176.693125 -233.44648438 176.13625 -233.38671875 175.5625 C-233.01076022 169.20343005 -234.44553731 165.14045265 -238.5625 160.25 C-239.2225 159.92 -239.8825 159.59 -240.5625 159.25 C-240.5625 157.6 -240.5625 155.95 -240.5625 154.25 C-241.2225 154.25 -241.8825 154.25 -242.5625 154.25 C-243.2225 152.93 -243.8825 151.61 -244.5625 150.25 C-243.41191444 155.64795989 -242.13828241 160.95987333 -240.5625 166.25 C-244.5625 166.25 -244.5625 166.25 -246.8125 164.5625 C-248.5625 162.25 -248.5625 162.25 -248.5 159.8125 C-248.29396909 156.94232107 -248.29396909 156.94232107 -251.0625 154.4375 C-251.8875 153.715625 -252.7125 152.99375 -253.5625 152.25 C-252.9025 150.93 -252.2425 149.61 -251.5625 148.25 C-252.2225 147.26 -252.8825 146.27 -253.5625 145.25 C-253.8181808 142.70157495 -253.87625414 140.18517086 -253.92578125 137.625 C-254.33031622 134.99826989 -254.33031622 134.99826989 -257.01953125 133.828125 C-259.5625 132.25 -259.5625 132.25 -260.5234375 129.359375 C-262.2573872 115.29148121 -259.04435941 108.56634973 -250.6875 97.375 C-248.11713995 93.61113254 -248.11713995 93.61113254 -247.5625 89.25 C-248.50976954 87.55280873 -249.50478261 85.88064764 -250.5625 84.25 C-250.2325 83.59 -249.9025 82.93 -249.5625 82.25 C-248.9025 82.25 -248.2425 82.25 -247.5625 82.25 C-247.48153197 80.79257537 -247.42332226 79.33387193 -247.375 77.875 C-247.34019531 77.06289062 -247.30539063 76.25078125 -247.26953125 75.4140625 C-247.36621094 74.69992188 -247.46289062 73.98578125 -247.5625 73.25 C-249.0475 72.26 -249.0475 72.26 -250.5625 71.25 C-250.85546875 68.6484375 -250.85546875 68.6484375 -250.75 65.625 C-250.70939453 64.12066406 -250.70939453 64.12066406 -250.66796875 62.5859375 C-250.63316406 61.81507812 -250.59835938 61.04421875 -250.5625 60.25 C-254.09566364 58.29564701 -256.52664776 58.16031439 -260.5625 58.25 C-260.8925 57.92 -261.2225 57.59 -261.5625 57.25 C-265.11692403 57.94892943 -268.622609 58.80952879 -272.14453125 59.65625 C-275.1916934 60.1855856 -276.73575747 60.33227925 -279.5625 59.25 C-279.789375 59.848125 -280.01625 60.44625 -280.25 61.0625 C-282.00426201 63.98627001 -283.43099164 64.88847463 -286.5625 66.25 C-288.45222439 66.21741855 -290.34228848 66.18069286 -292.23046875 66.09765625 C-296.89104901 66.40211627 -301.37960099 68.23573932 -305.5625 70.25 C-306.0575 71.24 -306.0575 71.24 -306.5625 72.25 C-307.5525 72.229375 -308.5425 72.20875 -309.5625 72.1875 C-313.62818074 72.17918572 -317.53912176 72.68531533 -321.5625 73.25 C-321.5625 72.59 -321.5625 71.93 -321.5625 71.25 C-320.84070557 71.01289307 -320.11891113 70.77578613 -319.37524414 70.53149414 C-316.12413243 69.46159761 -312.87455569 68.38711282 -309.625 67.3125 C-307.92053711 66.75272461 -307.92053711 66.75272461 -306.18164062 66.18164062 C-305.10205078 65.82392578 -304.02246094 65.46621094 -302.91015625 65.09765625 C-301.90992432 64.76773682 -300.90969238 64.43781738 -299.87915039 64.09790039 C-297.6318892 63.45971989 -297.6318892 63.45971989 -296.5625 62.25 C-298.2125 61.92 -299.8625 61.59 -301.5625 61.25 C-301.2325 60.59 -300.9025 59.93 -300.5625 59.25 C-301.2225 58.92 -301.8825 58.59 -302.5625 58.25 C-302.01377532 54.40892722 -300.54331203 52.68171508 -297.5625 50.25 C-293.61229632 48.3108091 -289.91681774 46.90974511 -285.5625 46.25 C-286.8825 45.92 -288.2025 45.59 -289.5625 45.25 C-289.5625 43.93 -289.5625 42.61 -289.5625 41.25 C-287.79300388 40.74528803 -286.02184777 40.24639315 -284.25 39.75 C-283.26386719 39.4715625 -282.27773438 39.193125 -281.26171875 38.90625 C-278.5625 38.25 -278.5625 38.25 -275.5625 38.25 C-276.0575 36.27 -276.0575 36.27 -276.5625 34.25 C-268.52151274 31.2494546 -260.57996089 28.81593806 -252.125 27.3125 C-251.02696045 27.10210083 -251.02696045 27.10210083 -249.90673828 26.88745117 C-244.59385024 26.01803663 -240.67248295 26.74829828 -235.5625 28.25 C-221.17401445 31.57974786 -206.94452565 32.04332722 -192.5625 28.25 C-192.2325 28.91 -191.9025 29.57 -191.5625 30.25 C-191.046875 30.04375 -190.53125 29.8375 -190 29.625 C-186.51602978 29.08900458 -183.89531632 30.19753169 -180.5625 31.25 C-178.90003959 31.60371498 -177.23475729 31.94595322 -175.5625 32.25 C-175.2325 30.6 -174.9025 28.95 -174.5625 27.25 C-177.5325 27.58 -180.5025 27.91 -183.5625 28.25 C-183.5625 27.59 -183.5625 26.93 -183.5625 26.25 C-184.2225 25.92 -184.8825 25.59 -185.5625 25.25 C-178.73467753 19.96394389 -173.3544972 18.60175817 -164.76171875 18.74609375 C-161.33414095 19.28596864 -159.44027223 20.38240467 -156.5625 22.25 C-151.63575755 22.63641117 -146.79147305 22.02399379 -141.89453125 21.46875 C-139.5625 21.25 -139.5625 21.25 -135.5625 21.25 C-134.5725 20.755 -134.5725 20.755 -133.5625 20.25 C-131.85547265 20.18003986 -130.14581997 20.16559846 -128.4375 20.1875 C-127.52742187 20.19652344 -126.61734375 20.20554687 -125.6796875 20.21484375 C-124.98101562 20.22644531 -124.28234375 20.23804687 -123.5625 20.25 C-123.5625 19.92 -123.5625 19.59 -123.5625 19.25 C-124.47 19.29125 -125.3775 19.3325 -126.3125 19.375 C-129.4407046 19.25468444 -130.94864006 18.8585292 -133.5625 17.25 C-133.2325 16.26 -132.9025 15.27 -132.5625 14.25 C-131.63566406 14.26160156 -130.70882812 14.27320313 -129.75390625 14.28515625 C-127.95759766 14.29869141 -127.95759766 14.29869141 -126.125 14.3125 C-124.33255859 14.32990234 -124.33255859 14.32990234 -122.50390625 14.34765625 C-119.67376659 14.58901792 -119.67376659 14.58901792 -118.5625 13.25 C-115.51945568 13.17733028 -112.48846034 13.25383691 -109.4453125 13.3125 C-106.49149733 13.39054947 -106.49149733 13.39054947 -103.5625 12.25 C-105.2125 11.26 -106.8625 10.27 -108.5625 9.25 C-107.5625 6.25 -107.5625 6.25 -105.30419922 5.11572266 C-91.29377519 0.6917722 -75.40206065 0.96428241 -60.8125 1 C-60.13624573 1.00086609 -59.45999146 1.00173218 -58.76324463 1.00262451 C-47.57735449 1.03974168 -47.57735449 1.03974168 -43.98535156 1.78393555 C-41.29826353 2.30082904 -39.12507045 2.18567868 -36.40625 1.91015625 C-35.39747803 1.81637695 -34.38870605 1.72259766 -33.34936523 1.62597656 C-31.72236694 1.47080566 -31.72236694 1.47080566 -30.0625 1.3125 C-20.03345942 0.45190811 -10.06611913 0.02513951 0 0 Z M-68.5625 8.25 C-68.5625 8.58 -68.5625 8.91 -68.5625 9.25 C-65.2625 8.92 -61.9625 8.59 -58.5625 8.25 C-58.5625 7.92 -58.5625 7.59 -58.5625 7.25 C-62.05484244 7.15021879 -65.15687148 7.47157062 -68.5625 8.25 Z M16.4375 15.25 C17.4375 17.25 17.4375 17.25 17.4375 17.25 Z M-115.5625 16.25 C-115.2325 16.91 -114.9025 17.57 -114.5625 18.25 C-114.2325 17.59 -113.9025 16.93 -113.5625 16.25 C-114.2225 16.25 -114.8825 16.25 -115.5625 16.25 Z M-113.5625 20.25 C-113.2325 20.91 -112.9025 21.57 -112.5625 22.25 C-111.5725 21.59 -110.5825 20.93 -109.5625 20.25 C-110.8825 20.25 -112.2025 20.25 -113.5625 20.25 Z M-145.5625 26.25 C-145.2325 27.24 -144.9025 28.23 -144.5625 29.25 C-143.9025 29.25 -143.2425 29.25 -142.5625 29.25 C-142.8925 30.24 -143.2225 31.23 -143.5625 32.25 C-140.9225 31.92 -138.2825 31.59 -135.5625 31.25 C-135.5625 30.59 -135.5625 29.93 -135.5625 29.25 C-134.9025 29.25 -134.2425 29.25 -133.5625 29.25 C-133.8925 28.59 -134.2225 27.93 -134.5625 27.25 C-135.5525 27.58 -136.5425 27.91 -137.5625 28.25 C-138.2225 26.27 -138.8825 24.29 -139.5625 22.25 C-141.78364466 22.25 -143.92128948 24.90336573 -145.5625 26.25 Z M-124.5625 25.25 C-124.89647787 28.12413125 -124.89647787 28.12413125 -124.5625 31.25 C-122.92799876 33.30945016 -122.92799876 33.30945016 -120.5625 34.25 C-118.37906815 34.18391003 -118.37906815 34.18391003 -116.5625 33.25 C-116.2325 32.59 -115.9025 31.93 -115.5625 31.25 C-116.8825 30.92 -118.2025 30.59 -119.5625 30.25 C-118.9025 28.27 -118.2425 26.29 -117.5625 24.25 C-121.19135324 24.09850702 -121.19135324 24.09850702 -124.5625 25.25 Z M-109.1875 33.5625 C-110.78069559 35.31440884 -110.78069559 35.31440884 -111.5625 38.25 C-113.41015625 39.41796875 -113.41015625 39.41796875 -115.625 40.4375 C-116.72521484 40.95376953 -116.72521484 40.95376953 -117.84765625 41.48046875 C-118.41355469 41.73441406 -118.97945312 41.98835938 -119.5625 42.25 C-118.9025 42.58 -118.2425 42.91 -117.5625 43.25 C-117.5625 43.91 -117.5625 44.57 -117.5625 45.25 C-116.9025 45.25 -116.2425 45.25 -115.5625 45.25 C-115.8925 45.91 -116.2225 46.57 -116.5625 47.25 C-117.614375 47.229375 -118.66625 47.20875 -119.75 47.1875 C-123.40332371 47.11358804 -123.40332371 47.11358804 -126.25 47.875 C-128.5625 48.25 -128.5625 48.25 -130.41796875 47.1796875 C-132.52923322 46.01890862 -132.52923322 46.01890862 -134.7890625 46.71875 C-145.66005449 50.86932509 -145.66005449 50.86932509 -153.84375 58.4375 C-154.19953125 59.3346875 -154.19953125 59.3346875 -154.5625 60.25 C-153.9025 60.25 -153.2425 60.25 -152.5625 60.25 C-152.8925 61.57 -153.2225 62.89 -153.5625 64.25 C-152.49 64.518125 -151.4175 64.78625 -150.3125 65.0625 C-146.5625 66.25 -146.5625 66.25 -144.5625 67.8125 C-141.7236102 69.85295205 -138.9853136 69.92088331 -135.5625 70.25 C-135.93375 71.013125 -136.305 71.77625 -136.6875 72.5625 C-136.97625 73.449375 -137.265 74.33625 -137.5625 75.25 C-136.9025 76.24 -136.2425 77.23 -135.5625 78.25 C-137.0475 78.745 -137.0475 78.745 -138.5625 79.25 C-137.9025 79.91 -137.2425 80.57 -136.5625 81.25 C-133.90142021 78.94373085 -132.66763422 77.64627512 -131.75 74.1875 C-130.5625 71.25 -130.5625 71.25 -127.125 69.5625 C-125.949375 69.129375 -124.77375 68.69625 -123.5625 68.25 C-121.68220761 66.71048953 -121.68220761 66.71048953 -120.5625 65.25 C-121.2225 63.27 -121.8825 61.29 -122.5625 59.25 C-121.758125 59.0025 -120.95375 58.755 -120.125 58.5 C-117.41345021 57.5476067 -117.41345021 57.5476067 -116.875 55.3125 C-116.771875 54.631875 -116.66875 53.95125 -116.5625 53.25 C-115.9025 52.26 -115.2425 51.27 -114.5625 50.25 C-112.28515625 49.921875 -112.28515625 49.921875 -109.625 50 C-108.31208984 50.02320313 -108.31208984 50.02320313 -106.97265625 50.046875 C-104.5625 50.25 -104.5625 50.25 -101.5625 51.25 C-101.5625 51.91 -101.5625 52.57 -101.5625 53.25 C-100.5725 53.25 -99.5825 53.25 -98.5625 53.25 C-99.2225 55.23 -99.8825 57.21 -100.5625 59.25 C-98.42195818 60.30050452 -98.42195818 60.30050452 -95.5625 60.25 C-92.97244275 58.51080867 -90.77125121 56.44602066 -88.5625 54.25 C-90.79410471 52.01839529 -92.01665922 51.70778807 -95 50.875 C-98.09154034 49.90578719 -99.35925512 49.46556276 -101.625 47.0625 C-101.934375 46.464375 -102.24375 45.86625 -102.5625 45.25 C-105.2025 45.58 -107.8425 45.91 -110.5625 46.25 C-110.2325 45.26 -109.9025 44.27 -109.5625 43.25 C-107.768125 43.12625 -107.768125 43.12625 -105.9375 43 C-101.51872973 42.4732071 -99.04810017 40.95134013 -95.5625 38.25 C-98.85226808 37.15341064 -100.27553767 37.45046862 -103.5625 38.25 C-102.5725 36.6 -101.5825 34.95 -100.5625 33.25 C-101.8825 33.58 -103.2025 33.91 -104.5625 34.25 C-104.5625 33.59 -104.5625 32.93 -104.5625 32.25 C-107.52167056 31.93583145 -107.52167056 31.93583145 -109.1875 33.5625 Z M-172.5625 33.25 C-171.5625 35.25 -171.5625 35.25 -171.5625 35.25 Z M-144.5625 32.25 C-145.8825 33.24 -147.2025 34.23 -148.5625 35.25 C-146.9125 34.92 -145.2625 34.59 -143.5625 34.25 C-143.8925 33.59 -144.2225 32.93 -144.5625 32.25 Z M-153.5625 34.25 C-149.5625 35.25 -149.5625 35.25 -149.5625 35.25 Z M-192.5625 39.25 C-192.5625 39.91 -192.5625 40.57 -192.5625 41.25 C-191.5725 40.92 -190.5825 40.59 -189.5625 40.25 C-190.5525 39.92 -191.5425 39.59 -192.5625 39.25 Z M-85.5625 40.25 C-85.5625 41.24 -85.5625 42.23 -85.5625 43.25 C-84.9025 43.25 -84.2425 43.25 -83.5625 43.25 C-83.8925 42.26 -84.2225 41.27 -84.5625 40.25 C-84.8925 40.25 -85.2225 40.25 -85.5625 40.25 Z M-175.5625 75.25 C-175.8925 76.24 -176.2225 77.23 -176.5625 78.25 C-175.5725 78.745 -175.5725 78.745 -174.5625 79.25 C-174.8925 77.93 -175.2225 76.61 -175.5625 75.25 Z M-157.5625 89.25 C-159.5425 90.24 -159.5425 90.24 -161.5625 91.25 C-161.2325 92.57 -160.9025 93.89 -160.5625 95.25 C-158.5825 94.92 -156.6025 94.59 -154.5625 94.25 C-154.5625 93.59 -154.5625 92.93 -154.5625 92.25 C-155.2225 92.25 -155.8825 92.25 -156.5625 92.25 C-156.8925 91.26 -157.2225 90.27 -157.5625 89.25 Z M-166.5625 92.25 C-167.2225 92.91 -167.8825 93.57 -168.5625 94.25 C-166.5825 93.92 -164.6025 93.59 -162.5625 93.25 C-164.45429203 92.5685177 -164.45429203 92.5685177 -166.5625 92.25 Z M-153.5625 98.25 C-153.5625 100.23 -153.5625 102.21 -153.5625 104.25 C-152.5725 103.26 -151.5825 102.27 -150.5625 101.25 C-150.8925 100.26 -151.2225 99.27 -151.5625 98.25 C-152.2225 98.25 -152.8825 98.25 -153.5625 98.25 Z M-164.5625 102.25 C-163.5625 104.25 -163.5625 104.25 -163.5625 104.25 Z M-165.5625 104.25 C-166.2225 105.9 -166.8825 107.55 -167.5625 109.25 C-166.5725 108.59 -165.5825 107.93 -164.5625 107.25 C-164.8925 106.26 -165.2225 105.27 -165.5625 104.25 Z M-248.5625 141.25 C-248.5625 142.57 -248.5625 143.89 -248.5625 145.25 C-247.9025 145.25 -247.2425 145.25 -246.5625 145.25 C-246.2325 146.24 -245.9025 147.23 -245.5625 148.25 C-245.5625 145.94 -245.5625 143.63 -245.5625 141.25 C-246.5525 141.25 -247.5425 141.25 -248.5625 141.25 Z M-132.5625 365.25 C-131.5625 367.25 -131.5625 367.25 -131.5625 367.25 Z " fill="#000000" transform="translate(411.5625,10.75)"/>
<path d="M0 0 C0.99 0 1.98 0 3 0 C4.41665158 2.39059954 5.00624025 3.74414959 4.9375 6.5625 C4.958125 7.366875 4.97875 8.17125 5 9 C5.47824219 9.41121094 5.95648437 9.82242187 6.44921875 10.24609375 C9.26599423 13.43181715 8.81977535 17.87128857 9.1796875 21.96875 C9.69946854 25.19760307 9.69946854 25.19760307 12.52734375 26.7109375 C13.75130859 27.34902344 13.75130859 27.34902344 15 28 C15.6875 31.125 15.6875 31.125 16 34 C16.66 34.33 17.32 34.66 18 35 C18 36.65 18 38.3 18 40 C18.66 40 19.32 40 20 40 C20.33 40.66 20.66 41.32 21 42 C21.66 42 22.32 42 23 42 C20.44273532 55.45162805 16.48041664 63.08768856 6.63330078 72.39648438 C4.11372721 74.78879189 2.14111938 76.75754671 0.37890625 79.78515625 C-1.31256591 82.50205346 -2.39260761 82.88134805 -5.4375 83.6875 C-8.50408988 84.53327691 -11.19000838 85.49579036 -14 87 C-15.485 86.01 -15.485 86.01 -17 85 C-18.485 85.495 -18.485 85.495 -20 86 C-22.36522558 85.07796291 -24.70401807 84.08301035 -27 83 C-27 81.02 -27 79.04 -27 77 C-27.56589844 76.79246094 -28.13179687 76.58492188 -28.71484375 76.37109375 C-31.01502051 75.40493866 -32.98535502 74.47797423 -35 73 C-36 69.25 -36 69.25 -36 66 C-43.417803 63.62630304 -50.89372503 65.35555158 -58 68 C-58.66644531 68.51820313 -59.33289063 69.03640625 -60.01953125 69.5703125 C-62.45657667 71.32959972 -64.02449997 71.42188948 -67 71.5625 C-70.59489124 71.74334057 -72.8245189 72.3505681 -76 74 C-82.28759028 74.55154301 -82.28759028 74.55154301 -84.9375 72.5 C-85.288125 72.005 -85.63875 71.51 -86 71 C-85.505 70.01 -85.505 70.01 -85 69 C-84.34 69 -83.68 69 -83 69 C-82.04184244 59.28062528 -82.04184244 59.28062528 -82.5625 49.5625 C-83.11394424 45.24992322 -82.53514018 42.12063942 -81 38 C-80.731875 37.071875 -80.46375 36.14375 -80.1875 35.1875 C-78.56421405 32.19723642 -77.23124123 31.98342124 -74 31 C-72.03269239 30.27121153 -70.07511078 29.51924075 -68.1171875 28.765625 C-66 28 -66 28 -63.8828125 27.421875 C-59.53307169 26.14157393 -57.58709029 24.89697407 -55.25 20.9375 C-54.90453125 20.24527344 -54.5590625 19.55304688 -54.203125 18.83984375 C-52.7486353 16.61560788 -51.37836775 16.08766818 -49 15 C-48.67 14.34 -48.34 13.68 -48 13 C-47.34 13 -46.68 13 -46 13 C-45.34 11.68 -44.68 10.36 -44 9 C-40.85375007 8.73781251 -39.38162983 8.75245633 -36.6875 10.5 C-36.130625 10.995 -35.57375 11.49 -35 12 C-34.731875 11.4225 -34.46375 10.845 -34.1875 10.25 C-32.23056191 6.5421173 -31.07061787 4.35687262 -27 3 C-27 2.34 -27 1.68 -27 1 C-26.278125 1.144375 -25.55625 1.28875 -24.8125 1.4375 C-23.02163013 1.79567397 -21.23003168 2.15023772 -19.4375 2.5 C-17.27318889 2.94396125 -15.13829418 3.44562743 -13 4 C-13.33 6.64 -13.66 9.28 -14 12 C-14.66 12 -15.32 12 -16 12 C-16 12.66 -16 13.32 -16 14 C-13.98208664 15.58969247 -13.98208664 15.58969247 -11.5 17.125 C-10.6646875 17.66382813 -9.829375 18.20265625 -8.96875 18.7578125 C-8.3190625 19.16773438 -7.669375 19.57765625 -7 20 C-4.60085301 15.7469667 -3.42298389 11.85268035 -2.47265625 7.125 C-1.91539717 4.61963686 -1.05529852 2.33673245 0 0 Z " fill="#000000" transform="translate(829,278)"/>
<path d="M0 0 C0.66 0.33 1.32 0.66 2 1 C2.40729228 3.32156597 2.74438677 5.6568787 3 8 C3.721875 7.360625 4.44375 6.72125 5.1875 6.0625 C8.20836509 3.84719893 9.31327934 3.21124457 13 3 C15.99081416 3.84417839 18.78509428 5.05974295 21.625 6.3125 C22.7696875 6.79493164 22.7696875 6.79493164 23.9375 7.28710938 C27.19553085 8.67891729 30.03715235 10.02476823 33 12 C33.495 13.485 33.495 13.485 34 15 C35.32848691 16.00642948 36.66150329 17.00692179 38 18 C38 18.66 38 19.32 38 20 C37.34 20 36.68 20 36 20 C37.66350659 23.23459615 39.36682156 25.44696109 42.1875 27.6875 C43.115625 28.450625 44.04375 29.21375 45 30 C45 30.66 45 31.32 45 32 C36.82409639 31.65060241 36.82409639 31.65060241 33.625 29.125 C33.08875 28.42375 32.5525 27.7225 32 27 C30.4587688 25.29078411 30.4587688 25.29078411 29 24 C28.34 24 27.68 24 27 24 C25.3553326 26.46326712 25.3553326 26.46326712 24 29 C20.20696275 27.99806563 17.28463659 27.18975773 14 25 C11.37468476 24.83286431 11.37468476 24.83286431 9 25 C9.33 23.68 9.66 22.36 10 21 C10.66 21 11.32 21 12 21 C11.505 18.525 11.505 18.525 11 16 C9.60550891 15.516941 8.20933293 15.03874483 6.8125 14.5625 C5.58273437 14.14291016 5.58273437 14.14291016 4.328125 13.71484375 C1.93081571 12.90653002 1.93081571 12.90653002 -0.9375 12.625 C-1.618125 12.41875 -2.29875 12.2125 -3 12 C-4.0625 9.6875 -4.0625 9.6875 -5 7 C-6.31387169 5.64748503 -7.64426252 4.31054623 -9 3 C-9 2.34 -9 1.68 -9 1 C-5.77390955 -0.07536348 -3.37822416 -0.14375422 0 0 Z " fill="#000000" transform="translate(809,247)"/>
<path d="M0 0 C0.66 0 1.32 0 2 0 C2.2475 0.804375 2.495 1.60875 2.75 2.4375 C3.72238859 5.171081 3.72238859 5.171081 6.125 5.8125 C6.74375 5.874375 7.3625 5.93625 8 6 C7.34 7.65 6.68 9.3 6 11 C5.34 11 4.68 11 4 11 C4.99 14.3 5.98 17.6 7 21 C6.34 21.33 5.68 21.66 5 22 C2.90238449 26.47491308 1.53391575 31.30621781 0 36 C-1.98 36 -3.96 36 -6 36 C-6 35.34 -6 34.68 -6 34 C-7.0725 34.020625 -8.145 34.04125 -9.25 34.0625 C-15.1402214 33.96432964 -15.1402214 33.96432964 -17 33 C-18.1875 30 -18.1875 30 -19 27 C-19.33 26.67 -19.66 26.34 -20 26 C-20.07179964 24.48071962 -20.08392007 22.95832518 -20.0625 21.4375 C-20.05347656 20.61121094 -20.04445313 19.78492188 -20.03515625 18.93359375 C-20.02355469 18.29550781 -20.01195312 17.65742188 -20 17 C-17 16 -17 16 -14 17 C-14 16.01 -14 15.02 -14 14 C-13.21625 13.9175 -12.4325 13.835 -11.625 13.75 C-8.8553382 13.29150599 -8.8553382 13.29150599 -7.875 11 C-7.58625 10.34 -7.2975 9.68 -7 9 C-6.01 8.67 -5.02 8.34 -4 8 C-2.87483915 6.16715557 -2.87483915 6.16715557 -2 4 C-1.33333333 2.66666667 -0.66666667 1.33333333 0 0 Z " fill="#000000" transform="translate(763,223)"/>
<path d="M0 0 C0.66 0 1.32 0 2 0 C4.24828052 4.49656104 4.16682272 8.07872966 4 13 C3.34 13 2.68 13 2 13 C1.90332031 14.11632812 1.80664062 15.23265625 1.70703125 16.3828125 C1.06595104 21.47777224 -0.53557372 26.07692652 -2.3125 30.875 C-2.60833984 31.72835938 -2.90417969 32.58171875 -3.20898438 33.4609375 C-3.50740234 34.275625 -3.80582031 35.0903125 -4.11328125 35.9296875 C-4.51220581 37.03159424 -4.51220581 37.03159424 -4.91918945 38.15576172 C-6.2893965 40.49381098 -7.4675787 41.10960392 -10 42 C-12.75 41.625 -12.75 41.625 -15 41 C-16.78387338 35.85824731 -17.200503 32.45683182 -16 27 C-15.67 26.67 -15.34 26.34 -15 26 C-14.7905639 24.02490127 -14.63196178 22.04428318 -14.5 20.0625 C-14.11004127 14.22008253 -14.11004127 14.22008253 -13 12 C-11.70936788 11.35042911 -10.39228791 10.75259975 -9.0625 10.1875 C-5.9957756 8.73368611 -5.18001896 8.33003477 -3.5 5.25 C-3.335 4.5075 -3.17 3.765 -3 3 C-2.34 3 -1.68 3 -1 3 C-0.67 2.01 -0.34 1.02 0 0 Z " fill="#000000" transform="translate(583,282)"/>
<path d="M0 0 C1.98 0 3.96 0 6 0 C7 7.75 7 7.75 7 10 C9.22189824 12.22189824 11.08482708 12.92598892 14 14 C13.67 15.32 13.34 16.64 13 18 C14.32 18 15.64 18 17 18 C21.93181269 32.07577442 21.93181269 32.07577442 20 38 C18.4375 39.9375 18.4375 39.9375 17 41 C15 39.75 15 39.75 13 38 C13 36.68 13 35.36 13 34 C11.02 34.66 9.04 35.32 7 36 C7.33 34.35 7.66 32.7 8 31 C8.66 31 9.32 31 10 31 C9.71125 30.37351563 9.4225 29.74703125 9.125 29.1015625 C8.75375 28.28429687 8.3825 27.46703125 8 26.625 C7.62875 25.81289062 7.2575 25.00078125 6.875 24.1640625 C6 22 6 22 6 20 C5.01 19.67 4.02 19.34 3 19 C1.9375 16.75 1.9375 16.75 1 14 C0.608125 13.2575 0.21625 12.515 -0.1875 11.75 C-1.37670327 7.72500431 -0.65988299 4.09305802 0 0 Z M6 17 C6 17.99 6 18.98 6 20 C7.32 20.33 8.64 20.66 10 21 C9.67 19.68 9.34 18.36 9 17 C8.01 17 7.02 17 6 17 Z M12 28 C12.66 28.66 13.32 29.32 14 30 C14 29.34 14 28.68 14 28 C13.34 28 12.68 28 12 28 Z " fill="#000000" transform="translate(769,190)"/>
<path d="M0 0 C0.66 0 1.32 0 2 0 C1.125 4.875 1.125 4.875 0 6 C-3.8361222 6.14475933 -7.32307787 6.17661508 -11 5 C-11 6.32 -11 7.64 -11 9 C-8.36 8.34 -5.72 7.68 -3 7 C-3 10 -3 10 -4.5 11.6875 C-4.995 12.120625 -5.49 12.55375 -6 13 C-5.505 14.0828125 -5.505 14.0828125 -5 15.1875 C-3.99396471 18.01697427 -3.83022598 20.02895466 -4 23 C-4.99 23 -5.98 23 -7 23 C-7 22.34 -7 21.68 -7 21 C-7.66 21 -8.32 21 -9 21 C-9.33 20.34 -9.66 19.68 -10 19 C-10.99 21.475 -10.99 21.475 -12 24 C-12.99 24 -13.98 24 -15 24 C-16.1864474 16.48106827 -16.28233547 10.02737902 -13 3 C-10.06753341 1.5337667 -7.32233257 2.02912611 -4.09375 2.16015625 C-1.77744021 2.21151774 -1.77744021 2.21151774 0 0 Z " fill="#000000" transform="translate(785,240)"/>
<path d="M0 0 C0 0.66 0 1.32 0 2 C-1.32 2.33 -2.64 2.66 -4 3 C-4 3.99 -4 4.98 -4 6 C-3.34 6 -2.68 6 -2 6 C-3 9 -3 9 -5 10 C-14.82971455 11.17564692 -23.58138218 11.60063791 -33 8 C-33 7.34 -33 6.68 -33 6 C-26.49577707 3.99134292 -20.8218683 2.61385651 -14 3 C-14.33 3.99 -14.66 4.98 -15 6 C-13.35 6 -11.7 6 -10 6 C-10 4.68 -10 3.36 -10 2 C-6.49223216 0.39644899 -3.85645121 -0.22036864 0 0 Z " fill="#000000" transform="translate(278,20)"/>
<path d="M0 0 C0.9178125 0.00451172 1.835625 0.00902344 2.78125 0.01367188 C5.02090391 0.02533674 7.26041545 0.04170386 9.5 0.0625 C9.5 0.7225 9.5 1.3825 9.5 2.0625 C7.52 2.7225 5.54 3.3825 3.5 4.0625 C4.49 4.3925 5.48 4.7225 6.5 5.0625 C6.5 5.7225 6.5 6.3825 6.5 7.0625 C3.21303767 7.86203138 1.78976808 8.15908936 -1.5 7.0625 C-1.5 6.4025 -1.5 5.7425 -1.5 5.0625 C-2.20125 5.743125 -2.9025 6.42375 -3.625 7.125 C-6.5 9.0625 -6.5 9.0625 -9.4375 9 C-12.68662473 8.00536998 -15.52291045 6.69281094 -18.5 5.0625 C-18.5 3.7425 -18.5 2.4225 -18.5 1.0625 C-12.28829926 0.14090421 -6.27390894 -0.05927385 0 0 Z " fill="#000000" transform="translate(499.5,16.9375)"/>
<path d="M0 0 C0 0.99 0 1.98 0 3 C-0.72445312 3.15855469 -1.44890625 3.31710938 -2.1953125 3.48046875 C-8.41368907 4.9811703 -12.45902441 6.45902441 -17 11 C-15.74458443 13.51083114 -14.49936512 13.87125446 -12 15 C-12.33 15.66 -12.66 16.32 -13 17 C-14.79232337 16.69128878 -16.58384321 16.37790936 -18.375 16.0625 C-19.37273438 15.88847656 -20.37046875 15.71445312 -21.3984375 15.53515625 C-24 15 -24 15 -26 14 C-25.34 11.69 -24.68 9.38 -24 7 C-23.34 7 -22.68 7 -22 7 C-21.67 6.01 -21.34 5.02 -21 4 C-17.89776008 1.95094546 -14.69385946 1.45198776 -11.0625 0.875 C-9.53302734 0.62363281 -9.53302734 0.62363281 -7.97265625 0.3671875 C-5.27407618 0.03385435 -2.71461065 -0.06998996 0 0 Z " fill="#000000" transform="translate(583,24)"/>
<path d="M0 0 C2.29487216 -0.08102624 4.58832053 -0.22749882 6.875 -0.4375 C8.02742188 -0.53933594 9.17984375 -0.64117187 10.3671875 -0.74609375 C11.67042969 -0.87177734 11.67042969 -0.87177734 13 -1 C13.33 0.65 13.66 2.3 14 4 C7.60043037 7.25057505 3.00032186 8.55559132 -4.25 7.75 C-6.69322043 6.70290553 -7.64107396 5.24222796 -9 3 C-9 2.34 -9 1.68 -9 1 C-5.22296168 -1.51802555 -4.32544266 -0.79734063 0 0 Z " fill="#000000" transform="translate(419,51)"/>
<path d="M0 0 C8.4275 4.44359091 8.4275 4.44359091 11.4375 6.8125 C11.4375 7.4725 11.4375 8.1325 11.4375 8.8125 C8.22298731 10.41975635 5.00137464 9.86998185 1.4375 9.8125 C1.21578125 9.01585937 0.9940625 8.21921875 0.765625 7.3984375 C-0.30913484 4.61121588 -0.30913484 4.61121588 -2.953125 3.8515625 C-10.27158516 2.77752764 -10.27158516 2.77752764 -17.5625 3.8125 C-16.5625 0.8125 -16.5625 0.8125 -14.76953125 -0.35546875 C-9.81241487 -2.22425776 -4.93882448 -1.64627483 0 0 Z " fill="#000000" transform="translate(249.5625,177.1875)"/>
<path d="M0 0 C2.5625 2.5625 2.5625 2.5625 4 5 C3.278125 5.12375 2.55625 5.2475 1.8125 5.375 C-0.95721894 5.9904931 -3.3970354 6.88444374 -6 8 C-6.33 7.67 -6.66 7.34 -7 7 C-9.32817964 6.63239269 -11.6618385 6.29758419 -14 6 C-13.67 5.01 -13.34 4.02 -13 3 C-11.02 3.495 -11.02 3.495 -9 4 C-9.66 2.68 -10.32 1.36 -11 0 C-7.5080793 -1.74596035 -3.68793117 -0.98912541 0 0 Z " fill="#000000" transform="translate(272,186)"/>
<path d="M0 0 C0.66 0.33 1.32 0.66 2 1 C2 1.66 2 2.32 2 3 C-7.19242498 4.22565666 -16.86914921 5.02907795 -26 3 C-26.33 2.34 -26.66 1.68 -27 1 C-25.39679026 0.80448662 -23.79237014 0.61888017 -22.1875 0.4375 C-21.29417969 0.33308594 -20.40085937 0.22867187 -19.48046875 0.12109375 C-17 0 -17 0 -14 1 C-13.29875 0.67 -12.5975 0.34 -11.875 0 C-7.80026974 -1.41729748 -4.18689938 -0.81434782 0 0 Z " fill="#000000" transform="translate(564,15)"/>
<path d="M0 0 C2.00451121 0.30503431 4.00448218 0.64080679 6 1 C6.99 1 7.98 1 9 1 C8.66142425 4.04718178 8.16892978 5.7747603 6.3125 8.25 C3.53405058 10.35261037 1.43246436 10.68795779 -2 11 C-3.31826804 7.04519588 -2.29536133 4.88608399 -1 1 C-0.67 0.67 -0.34 0.34 0 0 Z " fill="#000000" transform="translate(809,367)"/>
<path d="M0 0 C4.550582 0.3611573 8.85810084 1.18525967 12.9375 3.3125 C13.2675 4.3025 13.5975 5.2925 13.9375 6.3125 C2.22653204 6.52456984 2.22653204 6.52456984 -3.0625 5.3125 C-3.7225 4.3225 -4.3825 3.3325 -5.0625 2.3125 C-3.0625 0.3125 -3.0625 0.3125 0 0 Z " fill="#000000" transform="translate(618.0625,14.6875)"/>
<path d="M0 0 C1.32 0.66 2.64 1.32 4 2 C4 3.65 4 5.3 4 7 C3.34 7 2.68 7 2 7 C1.67 8.32 1.34 9.64 1 11 C0.01 10.67 -0.98 10.34 -2 10 C-1.85950482 8.52031676 -1.71245174 7.04125484 -1.5625 5.5625 C-1.48128906 4.73878906 -1.40007813 3.91507813 -1.31640625 3.06640625 C-1 1 -1 1 0 0 Z " fill="#000000" transform="translate(793,239)"/>
<path d="M0 0 C6.75 -0.125 6.75 -0.125 9 1 C9 1.99 9 2.98 9 4 C1.25 4.125 1.25 4.125 -1 3 C-0.67 2.01 -0.34 1.02 0 0 Z " fill="#000000" transform="translate(286,19)"/>
<path d="M0 0 C2.31 0 4.62 0 7 0 C7.66 1.32 8.32 2.64 9 4 C6.03 4 3.06 4 0 4 C0 2.68 0 1.36 0 0 Z " fill="#000000" transform="translate(793,254)"/>
<path d="M0 0 C0.66 0 1.32 0 2 0 C2.33 1.32 2.66 2.64 3 4 C2.01 4.33 1.02 4.66 0 5 C-1.16666667 6.91666667 -1.16666667 6.91666667 -2 9 C-2.33 9.66 -2.66 10.32 -3 11 C-3.66 11 -4.32 11 -5 11 C-4.32902328 6.80639551 -2.1441606 3.59665648 0 0 Z " fill="#000000" transform="translate(769,211)"/>
<path d="M0 0 C5.75 -0.125 5.75 -0.125 8 1 C7.67 1.99 7.34 2.98 7 4 C4.69 4 2.38 4 0 4 C0 2.68 0 1.36 0 0 Z " fill="#000000" transform="translate(318,399)"/>
<path d="M0 0 C-0.66 1.32 -1.32 2.64 -2 4 C-3.32 4 -4.64 4 -6 4 C-6.33 3.34 -6.66 2.68 -7 2 C-2.25 0 -2.25 0 0 0 Z " fill="#000000" transform="translate(542,138)"/>
<path d="M0 0 C2.31 0.33 4.62 0.66 7 1 C7 1.66 7 2.32 7 3 C4.39417629 3.93065133 3.35801776 4.14917407 0.75 3.0625 C0.1725 2.711875 -0.405 2.36125 -1 2 C-0.67 1.34 -0.34 0.68 0 0 Z " fill="#000000" transform="translate(514,138)"/>
<path d="M0 0 C2.35953094 2.35953094 2.49141413 3.77895617 3 7 C2.34 7 1.68 7 1 7 C0.67 4.69 0.34 2.38 0 0 Z " fill="#000000" transform="translate(646,233)"/>
<path d="M0 0 C0.99 0.33 1.98 0.66 3 1 C2.67 1.99 2.34 2.98 2 4 C1.34 4 0.68 4 0 4 C0 2.68 0 1.36 0 0 Z " fill="#000000" transform="translate(444,61)"/>
</svg>
